<?xml version="1.0" encoding="UTF-8" standalone="no"?>
<!DOCTYPE svg PUBLIC "-//W3C//DTD SVG 1.1//EN"
 "http://www.w3.org/Graphics/SVG/1.1/DTD/svg11.dtd">
<!-- Generated by graphviz version 2.36.0 (20140111.2315)
 -->
<!-- Title: controllers_diagram Pages: 1 -->
<svg width="416pt" height="406pt"
 viewBox="0.00 0.00 416.00 406.00" xmlns="http://www.w3.org/2000/svg" xmlns:xlink="http://www.w3.org/1999/xlink">
<g id="graph0" class="graph" transform="scale(1 1) rotate(0) translate(4 402)">
<title>controllers_diagram</title>
<polygon fill="white" stroke="none" points="-4,4 -4,-402 412,-402 412,4 -4,4"/>
<!-- _diagram_info -->
<g id="node1" class="node"><title>_diagram_info</title>
<text text-anchor="start" x="168" y="-95.6" font-family="Times,serif" font-size="13.00">Controllers diagram</text>
<text text-anchor="start" x="168" y="-81.6" font-family="Times,serif" font-size="13.00">Date: Mar 10 2015 &#45; 14:39</text>
<text text-anchor="start" x="168" y="-67.6" font-family="Times,serif" font-size="13.00">Migration version: 20150310032349</text>
<text text-anchor="start" x="168" y="-53.6" font-family="Times,serif" font-size="13.00">Generated by RailRoady 1.3.0</text>
<text text-anchor="start" x="168" y="-39.6" font-family="Times,serif" font-size="13.00">http://railroady.prestonlee.com</text>
</g>
<!-- ApplicationController -->
<g id="node2" class="node"><title>ApplicationController</title>
<path fill="none" stroke="black" d="M284,-304.5C284,-304.5 396,-304.5 396,-304.5 402,-304.5 408,-310.5 408,-316.5 408,-316.5 408,-385.5 408,-385.5 408,-391.5 402,-397.5 396,-397.5 396,-397.5 284,-397.5 284,-397.5 278,-397.5 272,-391.5 272,-385.5 272,-385.5 272,-316.5 272,-316.5 272,-310.5 278,-304.5 284,-304.5"/>
<text text-anchor="middle" x="340" y="-382.3" font-family="Times,serif" font-size="14.00">ApplicationController</text>
<polyline fill="none" stroke="black" points="272,-374.5 408,-374.5 "/>
<text text-anchor="start" x="280" y="-359.3" font-family="Times,serif" font-size="14.00">admin_permissions</text>
<polyline fill="none" stroke="black" points="272,-351.5 408,-351.5 "/>
<polyline fill="none" stroke="black" points="272,-327.5 408,-327.5 "/>
<text text-anchor="start" x="280" y="-312.3" font-family="Times,serif" font-size="14.00">_layout</text>
</g>
<!-- SessionsController -->
<g id="node3" class="node"><title>SessionsController</title>
<path fill="none" stroke="black" d="M172,-144.5C172,-144.5 267,-144.5 267,-144.5 273,-144.5 279,-150.5 279,-156.5 279,-156.5 279,-254.5 279,-254.5 279,-260.5 273,-266.5 267,-266.5 267,-266.5 172,-266.5 172,-266.5 166,-266.5 160,-260.5 160,-254.5 160,-254.5 160,-156.5 160,-156.5 160,-150.5 166,-144.5 172,-144.5"/>
<text text-anchor="middle" x="219.5" y="-251.3" font-family="Times,serif" font-size="14.00">SessionsController</text>
<polyline fill="none" stroke="black" points="160,-243.5 279,-243.5 "/>
<text text-anchor="start" x="168" y="-228.3" font-family="Times,serif" font-size="14.00">create</text>
<text text-anchor="start" x="168" y="-213.3" font-family="Times,serif" font-size="14.00">destroy</text>
<text text-anchor="start" x="168" y="-198.3" font-family="Times,serif" font-size="14.00">new</text>
<polyline fill="none" stroke="black" points="160,-190.5 279,-190.5 "/>
<text text-anchor="start" x="168" y="-175.3" font-family="Times,serif" font-size="14.00">safe_redirect</text>
<polyline fill="none" stroke="black" points="160,-167.5 279,-167.5 "/>
<text text-anchor="start" x="168" y="-152.3" font-family="Times,serif" font-size="14.00">_layout</text>
</g>
<!-- UsersController -->
<g id="node4" class="node"><title>UsersController</title>
<path fill="none" stroke="black" d="M28,-0.5C28,-0.5 115,-0.5 115,-0.5 121,-0.5 127,-6.5 127,-12.5 127,-12.5 127,-201.5 127,-201.5 127,-207.5 121,-213.5 115,-213.5 115,-213.5 28,-213.5 28,-213.5 22,-213.5 16,-207.5 16,-201.5 16,-201.5 16,-12.5 16,-12.5 16,-6.5 22,-0.5 28,-0.5"/>
<text text-anchor="middle" x="71.5" y="-198.3" font-family="Times,serif" font-size="14.00">UsersController</text>
<polyline fill="none" stroke="black" points="16,-190.5 127,-190.5 "/>
<text text-anchor="start" x="24" y="-175.3" font-family="Times,serif" font-size="14.00">create</text>
<text text-anchor="start" x="24" y="-160.3" font-family="Times,serif" font-size="14.00">edit</text>
<text text-anchor="start" x="24" y="-145.3" font-family="Times,serif" font-size="14.00">index</text>
<text text-anchor="start" x="24" y="-130.3" font-family="Times,serif" font-size="14.00">new</text>
<text text-anchor="start" x="24" y="-115.3" font-family="Times,serif" font-size="14.00">show</text>
<text text-anchor="start" x="24" y="-100.3" font-family="Times,serif" font-size="14.00">update</text>
<polyline fill="none" stroke="black" points="16,-92.5 127,-92.5 "/>
<polyline fill="none" stroke="black" points="16,-68.5 127,-68.5 "/>
<text text-anchor="start" x="24" y="-53.3" font-family="Times,serif" font-size="14.00">_layout</text>
<text text-anchor="start" x="24" y="-38.3" font-family="Times,serif" font-size="14.00">set_user</text>
<text text-anchor="start" x="24" y="-23.3" font-family="Times,serif" font-size="14.00">user_params</text>
<text text-anchor="start" x="24" y="-8.3" font-family="Times,serif" font-size="14.00">user_permissions</text>
</g>
<!-- DashboardController -->
<g id="node5" class="node"><title>DashboardController</title>
<path fill="none" stroke="black" d="M12,-240.5C12,-240.5 119,-240.5 119,-240.5 125,-240.5 131,-246.5 131,-252.5 131,-252.5 131,-336.5 131,-336.5 131,-342.5 125,-348.5 119,-348.5 119,-348.5 12,-348.5 12,-348.5 6,-348.5 0,-342.5 0,-336.5 0,-336.5 0,-252.5 0,-252.5 0,-246.5 6,-240.5 12,-240.5"/>
<text text-anchor="middle" x="65.5" y="-333.3" font-family="Times,serif" font-size="14.00">DashboardController</text>
<polyline fill="none" stroke="black" points="0,-325.5 131,-325.5 "/>
<text text-anchor="start" x="8" y="-310.3" font-family="Times,serif" font-size="14.00">about</text>
<text text-anchor="start" x="8" y="-295.3" font-family="Times,serif" font-size="14.00">index</text>
<polyline fill="none" stroke="black" points="0,-287.5 131,-287.5 "/>
<polyline fill="none" stroke="black" points="0,-263.5 131,-263.5 "/>
<text text-anchor="start" x="8" y="-248.3" font-family="Times,serif" font-size="14.00">_layout</text>
</g>
</g>
</svg>
