<?xml version="1.0" encoding="UTF-8" standalone="no"?>
<!DOCTYPE svg PUBLIC "-//W3C//DTD SVG 1.1//EN"
 "http://www.w3.org/Graphics/SVG/1.1/DTD/svg11.dtd">
<!-- Generated by graphviz version 2.36.0 (20140111.2315)
 -->
<!-- Title: models_diagram Pages: 1 -->
<svg width="373pt" height="130pt"
 viewBox="0.00 0.00 373.00 130.00" xmlns="http://www.w3.org/2000/svg" xmlns:xlink="http://www.w3.org/1999/xlink">
<g id="graph0" class="graph" transform="scale(1 1) rotate(0) translate(4 126)">
<title>models_diagram</title>
<polygon fill="white" stroke="none" points="-4,4 -4,-126 369,-126 369,4 -4,4"/>
<!-- _diagram_info -->
<g id="node1" class="node"><title>_diagram_info</title>
<text text-anchor="start" x="7" y="-85.6" font-family="Times,serif" font-size="13.00">Models diagram</text>
<text text-anchor="start" x="7" y="-71.6" font-family="Times,serif" font-size="13.00">Date: Mar 10 2015 &#45; 14:39</text>
<text text-anchor="start" x="7" y="-57.6" font-family="Times,serif" font-size="13.00">Migration version: 20150310032349</text>
<text text-anchor="start" x="7" y="-43.6" font-family="Times,serif" font-size="13.00">Generated by RailRoady 1.3.0</text>
<text text-anchor="start" x="7" y="-29.6" font-family="Times,serif" font-size="13.00">http://railroady.prestonlee.com</text>
</g>
<!-- User -->
<g id="node2" class="node"><title>User</title>
<path fill="none" stroke="black" d="M243,-0.5C243,-0.5 353,-0.5 353,-0.5 359,-0.5 365,-6.5 365,-12.5 365,-12.5 365,-109.5 365,-109.5 365,-115.5 359,-121.5 353,-121.5 353,-121.5 243,-121.5 243,-121.5 237,-121.5 231,-115.5 231,-109.5 231,-109.5 231,-12.5 231,-12.5 231,-6.5 237,-0.5 243,-0.5"/>
<text text-anchor="middle" x="298" y="-106.3" font-family="Times,serif" font-size="14.00">User</text>
<polyline fill="none" stroke="black" points="231,-98.5 365,-98.5 "/>
<text text-anchor="start" x="239" y="-83.3" font-family="Times,serif" font-size="14.00">id :integer</text>
<text text-anchor="start" x="239" y="-68.3" font-family="Times,serif" font-size="14.00">email :string</text>
<text text-anchor="start" x="239" y="-53.3" font-family="Times,serif" font-size="14.00">password_digest :text</text>
<text text-anchor="start" x="239" y="-38.3" font-family="Times,serif" font-size="14.00">created_at :datetime</text>
<text text-anchor="start" x="239" y="-23.3" font-family="Times,serif" font-size="14.00">updated_at :datetime</text>
<text text-anchor="start" x="239" y="-8.3" font-family="Times,serif" font-size="14.00">admin :boolean</text>
</g>
</g>
</svg>
